<svg width="128" height="24" viewBox="0 0 128 24" fill="none" xmlns="http://www.w3.org/2000/svg">
<path d="M0.048 9.412V8.668C1.392 8.428 5.16 6.076 6.192 2.764H6.768V8.284H9.888V9.412H6.768V20.02C6.768 21.1 7.2 22.204 8.52 22.204C9.048 22.204 9.624 22.132 10.128 21.868L10.344 22.3C9.384 23.26 7.68 23.932 6.048 23.932C3.96 23.932 1.992 23.14 1.992 20.236V10.9C1.992 9.604 1.92 9.412 0.048 9.412ZM11.8988 11.86C11.8988 10.636 11.7548 9.652 10.4588 8.932V8.716L16.5788 8.284V12.772H16.6988C17.4428 9.628 19.6268 7.756 21.9068 7.756C22.0988 7.756 22.3148 7.78 22.5068 7.804V13.108H22.1468C21.7388 11.86 21.0668 11.476 19.7948 11.476C18.4268 11.548 16.6988 13.156 16.6988 16.06V20.644C16.6988 22.204 17.3708 22.492 18.9788 23.26V23.5H10.4828V23.26C11.7068 22.564 11.8988 22.204 11.8988 20.644V11.86ZM26.8457 23.908C24.3977 23.908 22.9337 22.54 22.9337 20.068C22.9337 16.804 25.2377 15.412 27.8297 14.5C28.8617 14.14 29.9177 13.9 30.9017 13.636C30.9737 12.94 31.0697 12.22 31.0697 11.5C31.0697 9.82 30.2777 8.836 28.5257 8.836C26.8697 8.836 25.1417 10.012 24.2297 11.332L23.7257 10.924C25.3097 8.668 27.7817 7.804 30.4457 7.804C33.1577 7.804 35.7257 8.86 35.7257 11.956V19.036C35.7257 20.404 35.5577 22.252 37.5737 22.276V22.636L32.9417 23.908C31.4297 23.908 30.9257 22.42 30.7337 21.124C30.1817 22.924 28.7177 23.908 26.8457 23.908ZM27.8777 20.332C27.8777 20.98 27.9497 22.228 28.8617 22.228C29.8457 22.228 30.5177 20.74 30.5897 19.9C30.6377 19.3 30.6137 18.652 30.6377 18.028C30.6857 16.78 30.7337 15.532 30.8537 14.284C28.5497 15.58 27.8777 17.812 27.8777 20.332ZM38.9925 11.86C38.9925 10.636 38.8485 9.652 37.5525 8.932V8.716L43.6725 8.284V12.46H43.7925C44.5365 10.06 46.2405 7.828 48.9765 7.828C50.9445 7.828 52.6485 8.836 52.6485 11.572C52.6485 13.252 52.4565 17.02 52.4565 19.708C52.4565 21.796 52.6485 22.564 54.0885 23.26V23.5H48.7125C47.6805 23.5 47.2965 22.084 47.3445 19.396C47.3685 17.788 47.7525 14.572 47.7525 12.652C47.7525 11.524 47.4165 10.756 46.3125 10.732C44.2965 10.684 43.7925 14.452 43.7925 15.844V20.644C43.7925 22.204 43.9605 22.564 45.1845 23.26V23.5H37.5525V23.26C38.8005 22.564 38.9925 22.204 38.9925 20.644V11.86ZM60.1674 23.812C58.0794 23.812 56.3994 23.572 54.6234 22.444L55.2954 18.148H55.6794C56.0634 21.1 57.5274 23.092 60.1914 23.092C61.7994 23.092 62.9274 22.372 62.9034 20.908C62.8794 19.516 61.2954 18.844 59.6634 18.052C57.4074 16.948 54.6954 15.82 54.6954 12.772C54.6954 9.244 57.4794 7.804 60.8634 7.804C62.3994 7.804 64.1274 8.116 65.5194 9.028V12.772H65.1354C63.6954 10.3 62.5674 8.548 60.5034 8.548C59.3754 8.548 58.3194 9.028 58.2234 10.3C58.0554 12.58 61.1754 13.324 62.7114 14.044C64.6074 14.932 66.3834 16.036 66.3834 18.748C66.3834 22.54 63.1914 23.812 60.1674 23.812Z" fill="black"/>
<path d="M66.9838 8.524L69.1678 8.284C68.9998 7.612 68.9278 6.964 68.9278 6.34C68.9278 2.428 71.6878 0.579999 75.3598 0.579999C76.4878 0.579999 77.4958 0.771999 78.1198 1.036L78.0958 4.948C77.0638 4.372 74.8078 3.532 72.9598 3.532C71.4238 3.532 70.1998 4.156 70.1998 5.788C70.1998 7.252 71.8798 8.284 73.8718 8.284H76.7518V9.412H73.9438V20.644C73.9438 22.204 74.6878 22.564 75.9118 23.26V23.5H67.7278V23.26C68.9758 22.564 69.1678 22.204 69.1678 20.644V11.476C69.1678 9.508 69.0718 9.412 66.9838 9.412V8.524ZM76.6463 8.932V8.716L82.8863 8.284V19.372C82.8863 20.524 83.0783 22.06 84.6383 22.084C86.0783 22.108 87.0623 20.284 87.0623 18.196V11.86C87.0623 10.636 86.9423 9.652 85.6463 8.932V8.716L91.8863 8.284V19.036C91.8863 21.124 92.4383 21.58 93.8303 21.916V22.276L88.0223 23.908L87.0623 21.124C86.1983 23.068 84.2783 23.908 82.5983 23.908C79.5023 23.908 78.0863 22.108 78.0863 19.348V11.86C78.0863 10.636 77.9423 9.652 76.6463 8.932ZM95.2425 11.86C95.2425 10.636 95.0985 9.652 93.8025 8.932V8.716L99.9225 8.284V12.46H100.043C100.787 10.06 102.491 7.828 105.227 7.828C107.195 7.828 108.899 8.836 108.899 11.572C108.899 13.252 108.707 17.02 108.707 19.708C108.707 21.796 108.899 22.564 110.339 23.26V23.5H104.963C103.931 23.5 103.547 22.084 103.595 19.396C103.619 17.788 104.003 14.572 104.003 12.652C104.003 11.524 103.667 10.756 102.563 10.732C100.547 10.684 100.043 14.452 100.043 15.844V20.644C100.043 22.204 100.211 22.564 101.435 23.26V23.5H93.8025V23.26C95.0505 22.564 95.2425 22.204 95.2425 20.644V11.86ZM111.069 16.204C111.069 11.668 112.773 7.828 117.765 7.828C118.845 7.828 119.877 8.044 120.669 8.5L120.693 5.308C120.693 4.012 120.477 3.052 119.253 2.404V2.164L125.229 0.435999L125.469 0.603999V19.036C125.469 21.124 126.021 21.58 127.413 21.916V22.276L121.653 23.764L120.933 22.78C120.117 23.548 118.557 23.836 117.405 23.836C112.581 23.836 111.069 20.428 111.069 16.204ZM116.109 15.988C116.109 18.172 116.277 22.636 119.373 22.636C119.877 22.636 120.429 22.42 120.693 21.892V9.604C120.525 9.292 120.117 8.98 119.589 8.932C116.277 8.932 116.109 13.588 116.109 15.988Z" fill="#6100FF"/>
</svg>
